Coordinates
version=1
nRows=9
nColumns=24
inDegrees=yes

Units are S.I. units (second, meters, Newtons, ...)
Angles are in degrees.

endheader
time	pelvis_tilt	pelvis_list	pelvis_rotation	pelvis_tx	pelvis_ty	pelvis_tz	hip_flexion_r	hip_adduction_r	hip_rotation_r	knee_angle_r	ankle_angle_r	subtalar_angle_r	mtp_angle_r	hip_flexion_l	hip_adduction_l	hip_rotation_l	knee_angle_l	ankle_angle_l	subtalar_angle_l	mtp_angle_l	lumbar_extension	lumbar_bending	lumbar_rotation
      2.84000000	     24.23975209	     -4.74173533	      6.45443361	      0.24875205	      1.03471782	      0.02907389	    -16.87656716	      8.15478334	     -9.69864225	    -12.91168703	      9.20211621	     -9.74489861	      7.27479087	     -8.76573048	    -12.64133379	     -0.04019019	    -58.34872789	     -0.63720774	    -12.09386366	     43.61983883	    -40.14223260	      6.42666940	      0.92295948
      2.84500000	     24.26726425	     -4.68521745	      6.31159820	      0.25334047	      1.03521115	      0.02960248	    -17.32840688	      8.12743904	     -9.51178325	    -12.69491591	      9.36282703	     -9.72273831	      7.27685577	     -8.23338875	    -12.51641330	     -0.18297259	    -58.27123314	     -0.32676353	    -12.28000620	     43.58039706	    -40.20719143	      6.30983441	      1.03492842
      2.85000000	     24.32615517	     -4.62765023	      6.10398555	      0.25796431	      1.03578047	      0.03021006	    -17.83510935	      8.08534413	     -9.20411914	    -12.44570252	      9.46067956	     -9.74133638	      7.23580437	     -7.79250799	    -12.38542541	     -0.41423116	    -58.09198376	     -0.07546453	    -12.43501696	     43.38669513	    -40.30706009	      6.15273731	      1.19214838
      2.85500000	     24.38823625	     -4.57007221	      5.93456281	      0.26256998	      1.03629696	      0.03075196	    -18.33620564	      8.04811639	     -8.98672177	    -12.21045604	      9.58373583	     -9.77190356	      7.20136972	     -7.35640997	    -12.25396196	     -0.60290574	    -57.86454010	      0.25744520	    -12.54484258	     43.20676196	    -40.40782699	      6.01660849	      1.33638042
      2.86000000	     24.47774908	     -4.50982150	      5.72686273	      0.26716938	      1.03685796	      0.03135033	    -18.88733774	      7.99974359	     -8.66149709	    -11.93751482	      9.66552779	     -9.79011495	      7.12820717	     -6.98729271	    -12.11718204	     -0.83769739	    -57.55449733	      0.51812832	    -12.57986354	     42.84899963	    -40.54364163	      5.85239726	      1.48675229
      2.86500000	     24.54250281	     -4.43067862	      5.59579998	      0.27179488	      1.03734990	      0.03181683	    -19.41483145	      7.95082622	     -8.46079585	    -11.65884863	      9.79742617	     -9.86799108	      6.59546116	     -6.57757831	    -11.95736529	     -0.98719126	    -57.22727470	      1.02127266	    -12.40901299	     40.35155618	    -40.64174665	      5.71958966	      1.53808955
      2.87000000	     24.54426134	     -4.38387946	      5.40366287	      0.27639827	      1.03772531	      0.03231564	    -19.83892726	      7.89149545	     -8.25803324	    -11.44616160	      9.93952147	     -9.77805656	      6.60087686	     -6.12930117	    -11.81985632	     -1.21345928	    -56.82348717	      1.34039228	    -12.45677351	     40.31952507	    -40.67968777	      5.57972543	      1.67991913
      2.87500000	     24.62869393	     -4.30484086	      5.17900081	      0.28101863	      1.03822668	      0.03288429	    -20.38140462	      7.80084423	     -7.97216410	    -11.18667548	     10.05464714	     -9.77980530	      6.57747277	     -5.82990539	    -11.65322486	     -1.48580440	    -56.30589649	      1.60339738	    -12.43372317	     40.20436419	    -40.80769696	      5.38701522	      1.82935363
      2.88000000	     24.71549568	     -4.21882610	      4.97986482	      0.28566103	      1.03870754	      0.03339860	    -20.93659101	      7.70776936	     -7.72554625	    -10.90767070	     10.14919450	     -9.78993839	      6.53964522	     -5.54928894	    -11.47652911	     -1.73620031	    -55.72242099	      1.86807041	    -12.41354964	     40.02488559	    -40.93227078	      5.20357933	      1.94493787
